<?xml version="1.0" encoding="iso-8859-1"?>
<!-- Uploaded to: SVG Repo, www.svgrepo.com, Generator: SVG Repo Mixer Tools -->
<svg height="800px" width="800px" version="1.1" id="Layer_1" xmlns="http://www.w3.org/2000/svg" xmlns:xlink="http://www.w3.org/1999/xlink" 
	 viewBox="0 0 511.982 511.982" xml:space="preserve">
<polygon style="fill:#3BAED9;" points="330.66,42.67 256.085,128.003 181.322,42.67 202.665,0 309.318,0 "/>
<polygon style="fill:#5CDAF7;" points="330.66,42.67 181.322,42.67 202.665,0 309.318,0 "/>
<polygon style="fill:#4FC0E8;" points="181.322,42.67 256.085,128.003 256.085,42.67 "/>
<path style="fill:#F6BB42;" d="M255.991,106.668c-111.918,0-202.665,90.731-202.665,202.666
	c0,111.918,90.747,202.648,202.665,202.648c111.935,0,202.665-90.73,202.665-202.648C458.656,197.4,367.926,106.668,255.991,106.668
	z M255.991,479.984c-94.247,0-170.666-76.404-170.666-170.65c0-94.263,76.419-170.667,170.666-170.667
	s170.667,76.403,170.667,170.667C426.658,403.58,350.238,479.984,255.991,479.984z"/>
<path style="fill:#FFCE54;" d="M255.991,85.333c-111.918,0-202.665,90.731-202.665,202.657
	c0,111.934,90.747,202.666,202.665,202.666c111.935,0,202.665-90.732,202.665-202.666
	C458.656,176.064,367.926,85.333,255.991,85.333z M255.991,458.656c-94.247,0-170.666-76.418-170.666-170.666
	c0-94.247,76.419-170.658,170.666-170.658s170.667,76.412,170.667,170.658C426.658,382.238,350.238,458.656,255.991,458.656z"/>
</svg>